<svg width="14" height="17" viewBox="0 0 14 17" fill="none" xmlns="http://www.w3.org/2000/svg">
<mask id="mask0_1138_197" style="mask-type:luminance" maskUnits="userSpaceOnUse" x="0" y="0" width="14" height="17">
<path d="M14 0.5H0V16.5H14V0.5Z" fill="white"/>
</mask>
<g mask="url(#mask0_1138_197)">
<path d="M4.96875 0.999935C5.26042 0.770754 5.55209 0.781199 5.84375 1.03126C6.69792 1.82287 7.51042 2.69786 8.28125 3.65619C8.61458 3.17702 9 2.72913 9.4375 2.31252C9.72916 2.06247 10.0208 2.06247 10.3125 2.31252C10.8542 2.83336 11.3438 3.41668 11.7813 4.06247C12.2396 4.68746 12.625 5.33329 12.9375 5.99997C13.2708 6.64581 13.5312 7.27081 13.7187 7.87497C13.9062 8.47914 14 9.0208 14 9.49997C13.9792 10.8333 13.6667 12.0521 13.0625 13.1562C12.4375 14.2604 11.5938 15.1458 10.5312 15.8125C9.48958 16.4791 8.3125 16.8229 7 16.8437C5.6875 16.8229 4.49999 16.4791 3.4375 15.8125C2.39583 15.1458 1.5625 14.2604 0.9375 13.1562C0.333334 12.0521 0.0208334 10.8333 0 9.49997C0.0416667 8.24997 0.510416 6.87495 1.40625 5.37492C2.30208 3.85416 3.48958 2.39582 4.96875 0.999935ZM7.0625 13.8437C7.83334 13.8437 8.55209 13.625 9.21875 13.1875C9.86458 12.7083 10.2708 12.0729 10.4375 11.2812C10.5833 10.5104 10.4688 9.74997 10.0938 8.99997C9.88542 8.70831 9.64583 8.68747 9.375 8.93747L8.59375 9.84372C8.32292 10.0729 8.0625 10.0625 7.8125 9.81247C7.54167 9.47914 7.21875 9.07289 6.84375 8.59372C6.46875 8.11455 6.13542 7.69788 5.84375 7.34372C5.59375 7.09372 5.34375 7.0833 5.09375 7.31247C4.55208 7.97914 4.15625 8.55206 3.90625 9.03122C3.63542 9.51039 3.5 9.97914 3.5 10.4375C3.52083 11.5208 3.86458 12.3541 4.53125 12.9375C5.19791 13.5416 6.04167 13.8437 7.0625 13.8437Z" fill="white"/>
</g>
</svg>
