<svg width="24" height="17" viewBox="0 0 24 17" fill="none" xmlns="http://www.w3.org/2000/svg">
<mask id="mask0_1138_218" style="mask-type:luminance" maskUnits="userSpaceOnUse" x="0" y="0" width="18" height="17">
<path d="M17.775 0.100006H0V16.9H17.775V0.100006Z" fill="white"/>
</mask>
<g mask="url(#mask0_1138_218)">
<path d="M8.92029 8.33603V1.01879C8.94216 0.69071 9.11707 0.504793 9.44502 0.461033C10.8224 0.482874 12.0577 0.821955 13.1509 1.47828C14.266 2.1126 15.1405 2.9876 15.7745 4.10328C16.4304 5.19699 16.7693 6.43291 16.7911 7.81103C16.7474 8.13916 16.5616 8.31416 16.2336 8.33603H8.92029ZM0 9.38603C0.043727 7.35166 0.69963 5.62354 1.96771 4.20168C3.21393 2.75792 4.82089 1.88292 6.7886 1.57668C7.11655 1.57668 7.30239 1.75168 7.34612 2.10168V9.91103L12.495 15.0626C12.7136 15.3251 12.6918 15.5767 12.4294 15.8173C11.1176 16.7579 9.59806 17.2392 7.87085 17.261C6.40599 17.2392 5.08325 16.8782 3.90263 16.1782C2.722 15.4782 1.78187 14.5376 1.08224 13.3563C0.382609 12.1751 0.0218634 10.8517 0 9.38603ZM17.2502 9.91103C17.6001 9.95478 17.775 10.1407 17.775 10.4688C17.4908 12.3501 16.6818 13.9032 15.3481 15.1282C15.1076 15.3251 14.8781 15.3251 14.6594 15.1282L9.44502 9.91103H17.2502Z" fill="white"/>
</g>
</svg>
