<svg width="16" height="17" viewBox="0 0 16 17" fill="none" xmlns="http://www.w3.org/2000/svg">
<path d="M16 3C15.9792 3.56253 15.5834 4.06253 14.8125 4.5C13.8542 5.0208 12.5729 5.34373 10.9688 5.4688C10.8646 5.40626 10.75 5.35417 10.625 5.3125C9.35417 4.79163 7.8125 4.5208 6 4.5C5.75 4.5 5.5 4.5104 5.25 4.5312L5.1875 4.5C4.41667 4.06253 4.02083 3.56253 4 3C4.04167 2.29167 4.625 1.69793 5.75 1.2188C6.875 0.760396 8.29167 0.5208 10 0.5C11.7083 0.5208 13.125 0.760396 14.25 1.2188C15.375 1.69793 15.9583 2.29167 16 3ZM5.03125 5.5312C5.34375 5.5104 5.66667 5.5 6 5.5C6.97917 5.5 7.875 5.59374 8.6875 5.7812C9.52083 5.94787 10.2187 6.17706 10.7812 6.4688C11.5729 6.90626 11.9792 7.41667 12 8C12 8.125 11.9792 8.25 11.9375 8.375C11.7708 8.79167 11.4063 9.15625 10.8438 9.46875C10.8229 9.48958 10.8125 9.5 10.8125 9.5C10.25 9.8125 9.55208 10.0521 8.71875 10.2188C7.90625 10.4062 7 10.5 6 10.5C4.08333 10.4792 2.54167 10.1771 1.375 9.59375C1.3125 9.55208 1.25 9.52083 1.1875 9.5C0.416667 9.0625 0.0208333 8.5625 0 8C0.0208333 7.4375 0.395833 6.94792 1.125 6.53125C1.85417 6.11455 2.8125 5.82287 4 5.6562C4.33333 5.59374 4.67708 5.55207 5.03125 5.5312ZM13 8C12.9583 7.3125 12.7083 6.76043 12.25 6.3438C13.1459 6.19793 13.9375 5.97917 14.625 5.6875C15.1458 5.47917 15.6041 5.21874 16 4.9062V6C15.9792 6.625 15.5209 7.15625 14.625 7.59375C14.1667 7.82292 13.625 8.01042 13 8.15625C13 8.11458 13 8.0625 13 8ZM12 11C11.9792 11.5625 11.5834 12.0625 10.8125 12.5C10.7708 12.5208 10.7292 12.5417 10.6875 12.5625C10.6666 12.5625 10.6458 12.5729 10.625 12.5938C9.45833 13.1771 7.91667 13.4792 6 13.5C5 13.5 4.09375 13.4062 3.28125 13.2188C2.44792 13.0521 1.75 12.8125 1.1875 12.5C0.416667 12.0625 0.0208333 11.5625 0 11V9.90625C0.395833 10.2188 0.854167 10.4792 1.375 10.6875C2.64583 11.2083 4.1875 11.4792 6 11.5C7.8125 11.4792 9.35417 11.2083 10.625 10.6875C10.875 10.5833 11.1146 10.4688 11.3438 10.3438C11.5313 10.2396 11.7083 10.125 11.875 10C11.8958 9.97917 11.9271 9.95833 11.9688 9.9375C11.9688 9.91667 11.9792 9.90625 12 9.90625V10V10.1875V11ZM13 11V10V9.1875C13.6041 9.0625 14.1458 8.89583 14.625 8.6875C15.1458 8.47917 15.6041 8.21875 16 7.90625V9C16 9.33333 15.8437 9.65625 15.5312 9.96875C14.9896 10.4896 14.1459 10.8854 13 11.1562C13 11.1146 13 11.0625 13 11ZM6 14.5C7.8125 14.4792 9.35417 14.2083 10.625 13.6875C11.1458 13.4792 11.6041 13.2188 12 12.9062V14C11.9583 14.7083 11.375 15.3021 10.25 15.7812C9.125 16.2396 7.70833 16.4792 6 16.5C4.29167 16.4792 2.875 16.2396 1.75 15.7812C0.625 15.3021 0.0416667 14.7083 0 14V12.9062C0.395833 13.2188 0.854167 13.4792 1.375 13.6875C2.64583 14.2083 4.1875 14.4792 6 14.5Z" fill="white"/>
</svg>
