<svg width="18" height="19" viewBox="0 0 18 19" fill="none" xmlns="http://www.w3.org/2000/svg">
<mask id="mask0_1138_260" style="mask-type:luminance" maskUnits="userSpaceOnUse" x="0" y="0" width="18" height="19">
<path d="M18 0.5H0V18.5H18V0.5Z" fill="white"/>
</mask>
<g mask="url(#mask0_1138_260)">
<path d="M1.125 2.01172C1.45312 2.01172 1.72266 2.11718 1.9336 2.32812C2.14453 2.53907 2.25 2.8086 2.25 3.13672V14.9492C2.27343 15.3008 2.46093 15.4883 2.8125 15.5117H16.875C17.2031 15.5117 17.4726 15.6172 17.6836 15.8281C17.8945 16.0391 18 16.3086 18 16.6367C18 16.9648 17.8945 17.2344 17.6836 17.4453C17.4726 17.6563 17.2031 17.7617 16.875 17.7617H2.8125C2.01562 17.7383 1.34765 17.4687 0.808594 16.9531C0.292969 16.4141 0.0234375 15.7461 0 14.9492V3.13672C0 2.8086 0.105469 2.53907 0.316406 2.32812C0.527344 2.11718 0.796875 2.01172 1.125 2.01172ZM4.5 5.38672C4.5 5.0586 4.60547 4.78907 4.8164 4.57812C5.02734 4.36718 5.29688 4.26172 5.625 4.26172H12.375C12.7031 4.26172 12.9726 4.36718 13.1836 4.57812C13.3945 4.78907 13.5 5.0586 13.5 5.38672C13.5 5.71484 13.3945 5.98437 13.1836 6.19531C12.9726 6.40625 12.7031 6.51172 12.375 6.51172H5.625C5.29688 6.51172 5.02734 6.40625 4.8164 6.19531C4.60547 5.98437 4.5 5.71484 4.5 5.38672ZM5.625 7.63672H10.125C10.4531 7.63672 10.7227 7.74219 10.9336 7.95312C11.1445 8.16407 11.25 8.4336 11.25 8.76172C11.25 9.08984 11.1445 9.35937 10.9336 9.57031C10.7227 9.78125 10.4531 9.88672 10.125 9.88672H5.625C5.29688 9.88672 5.02734 9.78125 4.8164 9.57031C4.60547 9.35937 4.5 9.08984 4.5 8.76172C4.5 8.4336 4.60547 8.16407 4.8164 7.95312C5.02734 7.74219 5.29688 7.63672 5.625 7.63672ZM5.625 11.0117H14.625C14.9531 11.0117 15.2226 11.1172 15.4336 11.3281C15.6445 11.5391 15.75 11.8086 15.75 12.1367C15.75 12.4648 15.6445 12.7344 15.4336 12.9453C15.2226 13.1562 14.9531 13.2617 14.625 13.2617H5.625C5.29688 13.2617 5.02734 13.1562 4.8164 12.9453C4.60547 12.7344 4.5 12.4648 4.5 12.1367C4.5 11.8086 4.60547 11.5391 4.8164 11.3281C5.02734 11.1172 5.29688 11.0117 5.625 11.0117Z" fill="white"/>
</g>
</svg>
